# xmcd
#
# Track frame offsets: 
#        150
#        22735
#        43967
#        67462
#        84585
#        111910
#        136205
#        151747
#        181317
#        202772
#        226780
#        246680
#
# Disc length: 3623 seconds
#
# Revision: 3
# Processed by: cddbd v1.5.2PL0 Copyright (c) Steve Scherf et al.
# Submitted via: ExactAudioCopy v1.0b1
#
DISCID=9f0e250c
DTITLE=Various Artist - Galaxy Express 999 Eternal Edition File No.3
DYEAR=2001
DGENRE=Soundtrack
TTITLE0=Prologue - Turbulent Times
TTITLE1=Message
TTITLE2=New Journey
TTITLE3=Ghost Train - Rametaru
TTITLE4=Partisan Myauda
TTITLE5=In Hurushiro
TTITLE6=Reunion
TTITLE7=Faust Black Knight
TTITLE8=Various Thoughts
TTITLE9=Of the Universe to Lifelong
TTITLE10=Planet of Andromeda
TTITLE11=Flame of Life
EXTD=YEAR:2001
EXTT0=
EXTT1=
EXTT2=
EXTT3=
EXTT4=
EXTT5=
EXTT6=
EXTT7=
EXTT8=
EXTT9=
EXTT10=
EXTT11=
PLAYORDER=
